HIERARCHY
ROOT hip
{
  OFFSET 0.00112043 5.09927 -9.65472
  CHANNELS 6 Xposition Yposition Zposition Zrotation Xrotation Yrotation
  JOINT abdomen
  {
    OFFSET 0 -1.186 -1.5018
    CHANNELS 3 Zrotation Xrotation Yrotation
    JOINT abdomen2
    {
      OFFSET 0 9.964 0.2134
      CHANNELS 3 Zrotation Xrotation Yrotation
      JOINT chest
      {
        OFFSET 0 13.134 -3.2573
        CHANNELS 3 Zrotation Xrotation Yrotation
        JOINT neck
        {
          OFFSET 0 20.686 -1.6905
          CHANNELS 3 Zrotation Xrotation Yrotation
          JOINT head
          {
            OFFSET 0 7.238 -0.1237
            CHANNELS 3 Zrotation Xrotation Yrotation
            End Site
            {
              OFFSET 0 0 0
            }
          }
        }
        JOINT lCollar
        {
          OFFSET 1.7069 20.075 5.0056
          CHANNELS 3 Zrotation Xrotation Yrotation
          JOINT lShldr
          {
            OFFSET 13.6458 -0.047 -4.849
            CHANNELS 3 Zrotation Xrotation Yrotation
            JOINT lForeArm
            {
              OFFSET 28.3255 -0.9759 2.2888
              CHANNELS 3 Zrotation Xrotation Yrotation
              JOINT lHand
              {
                OFFSET 22.1583 -0.53 10.8316
                CHANNELS 3 Zrotation Xrotation Yrotation
                JOINT lThumb1
                {
                  OFFSET 0.786 0.112 2.5817
                  CHANNELS 3 Zrotation Xrotation Yrotation
                  JOINT lThumb2
                  {
                    OFFSET 0.3601 -0.878 4.2331
                    CHANNELS 3 Zrotation Xrotation Yrotation
                    JOINT lThumb2_End
                    {
                      OFFSET 1.8127 -1.216 2.2227
                      CHANNELS 3 Zrotation Xrotation Yrotation
                      End Site
                      {
                        OFFSET 0.0181 -0.0122 0.0222
                      }
                    }
                  }
                }
                JOINT lCarpal1
                {
                  OFFSET 0.9571 1.114 1.7695
                  CHANNELS 3 Zrotation Xrotation Yrotation
                  JOINT lIndex1
                  {
                    OFFSET 4.1246 0.487 4.1451
                    CHANNELS 3 Zrotation Xrotation Yrotation
                    JOINT lIndex2
                    {
                      OFFSET 3.4052 -1.454 2.7682
                      CHANNELS 3 Zrotation Xrotation Yrotation
                      JOINT lIndex2_End
                      {
                        OFFSET 1.4531 -1.795 1.2713
                        CHANNELS 3 Zrotation Xrotation Yrotation
                        End Site
                        {
                          OFFSET 0.0145 -0.0179 0.0127
                        }
                      }
                    }
                  }
                  JOINT lMid1
                  {
                    OFFSET 5.6954 0.21 2.1184
                    CHANNELS 3 Zrotation Xrotation Yrotation
                    JOINT lMid2
                    {
                      OFFSET 3.9766 -1.54 2.3863
                      CHANNELS 3 Zrotation Xrotation Yrotation
                      JOINT lMid2_End
                      {
                        OFFSET 1.4042 -1.926 1.125
                        CHANNELS 3 Zrotation Xrotation Yrotation
                        End Site
                        {
                          OFFSET 0.014 -0.0193 0.0113
                        }
                      }
                    }
                  }
                }
                JOINT lCarpal2
                {
                  OFFSET 2.0956 0.66 -0.3894
                  CHANNELS 3 Zrotation Xrotation Yrotation
                  JOINT lRing1
                  {
                    OFFSET 5.0395 -0.09 2.4971
                    CHANNELS 3 Zrotation Xrotation Yrotation
                    JOINT lRing2
                    {
                      OFFSET 3.7921 -1.552 1.4806
                      CHANNELS 3 Zrotation Xrotation Yrotation
                      JOINT lRing2_End
                      {
                        OFFSET 1.4655 -1.808 0.9609
                        CHANNELS 3 Zrotation Xrotation Yrotation
                        End Site
                        {
                          OFFSET 0.0147 -0.0181 0.0096
                        }
                      }
                    }
                  }
                  JOINT lPinky1
                  {
                    OFFSET 4.9141 -1.269 0.3591
                    CHANNELS 3 Zrotation Xrotation Yrotation
                    JOINT lPinky2
                    {
                      OFFSET 3.1477 -1.685 0.8462
                      CHANNELS 3 Zrotation Xrotation Yrotation
                      JOINT lPinky2_End
                      {
                        OFFSET 0.8055 -1.585 0.7955
                        CHANNELS 3 Zrotation Xrotation Yrotation
                        End Site
                        {
                          OFFSET 0.0081 -0.0158 0.008
                        }
                      }
                    }
                  }
                }
              }
            }
          }
        }
        JOINT rCollar
        {
          OFFSET -1.7069 20.075 5.0056
          CHANNELS 3 Zrotation Xrotation Yrotation
          JOINT rShldr
          {
            OFFSET -13.6458 -0.047 -4.849
            CHANNELS 3 Zrotation Xrotation Yrotation
            JOINT rForeArm
            {
              OFFSET -28.3255 -0.9759 2.2888
              CHANNELS 3 Zrotation Xrotation Yrotation
              JOINT rHand
              {
                OFFSET -22.1583 -0.53 10.8316
                CHANNELS 3 Zrotation Xrotation Yrotation
                JOINT rThumb1
                {
                  OFFSET -0.786 0.112 2.5817
                  CHANNELS 3 Zrotation Xrotation Yrotation
                  JOINT rThumb2
                  {
                    OFFSET -0.3601 -0.878 4.2331
                    CHANNELS 3 Zrotation Xrotation Yrotation
                    JOINT rThumb2_End
                    {
                      OFFSET -1.8127 -1.216 2.2227
                      CHANNELS 3 Zrotation Xrotation Yrotation
                      End Site
                      {
                        OFFSET -0.0181 -0.0122 0.0222
                      }
                    }
                  }
                }
                JOINT rCarpal1
                {
                  OFFSET -0.9571 1.114 1.7695
                  CHANNELS 3 Zrotation Xrotation Yrotation
                  JOINT rIndex1
                  {
                    OFFSET -4.1246 0.487 4.1451
                    CHANNELS 3 Zrotation Xrotation Yrotation
                    JOINT rIndex2
                    {
                      OFFSET -3.4052 -1.454 2.7682
                      CHANNELS 3 Zrotation Xrotation Yrotation
                      JOINT rIndex2_End
                      {
                        OFFSET -1.4531 -1.795 1.2713
                        CHANNELS 3 Zrotation Xrotation Yrotation
                        End Site
                        {
                          OFFSET -0.0145 -0.018 0.0127
                        }
                      }
                    }
                  }
                  JOINT rMid1
                  {
                    OFFSET -5.6954 0.21 2.1184
                    CHANNELS 3 Zrotation Xrotation Yrotation
                    JOINT rMid2
                    {
                      OFFSET -3.9766 -1.54 2.3863
                      CHANNELS 3 Zrotation Xrotation Yrotation
                      JOINT rMid2_End
                      {
                        OFFSET -1.4042 -1.926 1.125
                        CHANNELS 3 Zrotation Xrotation Yrotation
                        End Site
                        {
                          OFFSET -0.014 -0.0193 0.0113
                        }
                      }
                    }
                  }
                }
                JOINT rCarpal2
                {
                  OFFSET -2.0956 0.66 -0.3894
                  CHANNELS 3 Zrotation Xrotation Yrotation
                  JOINT rRing1
                  {
                    OFFSET -5.0395 -0.09 2.4971
                    CHANNELS 3 Zrotation Xrotation Yrotation
                    JOINT rRing2
                    {
                      OFFSET -3.7921 -1.552 1.4806
                      CHANNELS 3 Zrotation Xrotation Yrotation
                      JOINT rRing2_End
                      {
                        OFFSET -1.4655 -1.808 0.9609
                        CHANNELS 3 Zrotation Xrotation Yrotation
                        End Site
                        {
                          OFFSET -0.0147 -0.0181 0.0096
                        }
                      }
                    }
                  }
                  JOINT rPinky1
                  {
                    OFFSET -4.9141 -1.269 0.3592
                    CHANNELS 3 Zrotation Xrotation Yrotation
                    JOINT rPinky2
                    {
                      OFFSET -3.1477 -1.685 0.8462
                      CHANNELS 3 Zrotation Xrotation Yrotation
                      JOINT rPinky2_End
                      {
                        OFFSET -0.8055 -1.585 0.7955
                        CHANNELS 3 Zrotation Xrotation Yrotation
                        End Site
                        {
                          OFFSET -0.0081 -0.0158 0.008
                        }
                      }
                    }
                  }
                }
              }
            }
          }
        }
      }
    }
  }
  JOINT lThigh
  {
    OFFSET 8.367 -8.2066 0.5982
    CHANNELS 3 Zrotation Xrotation Yrotation
    JOINT lShin
    {
      OFFSET 2.1923 -43.463 -0.4932
      CHANNELS 3 Zrotation Xrotation Yrotation
      JOINT lFoot
      {
        OFFSET 0.7333 -45.8593 -2.6451
        CHANNELS 3 Zrotation Xrotation Yrotation
        End Site
        {
          OFFSET 2.6618 -4.2699 12.3931
        }
      }
    }
  }
  JOINT rThigh
  {
    OFFSET -8.367 -8.2066 0.5982
    CHANNELS 3 Zrotation Xrotation Yrotation
    JOINT rShin
    {
      OFFSET -2.1923 -43.463 -0.4931
      CHANNELS 3 Zrotation Xrotation Yrotation
      JOINT rFoot
      {
        OFFSET -0.7333 -45.8593 -2.6451
        CHANNELS 3 Zrotation Xrotation Yrotation
        End Site
        {
          OFFSET -2.6618 -4.2699 12.3931
        }
      }
    }
  }
}
MOTION
Frames:	4
Frame Time:	0.0333333
0 91.7903 2.51682 0 0 -0 0 0 -0 0 0 -0 0 0 -0 0 0 -0 0 0 -0 0 0 -0 1.66051 0.0835086 5.75766 -0.0175111 0.895433 15.7816 7.95139e-016 -1.98785e-016 -0 5.46658e-016 -3.97569e-016 -0 5.96354e-016 0 -0 3.97569e-016 1.98785e-016 9.54166e-015 1.49089e-016 -3.97569e-016 -0 6.4605e-016 0 3.18055e-015 5.96354e-016 0 3.18055e-015 8.94531e-016 -1.98785e-016 6.36111e-015 6.4605e-016 0 3.18055e-015 5.96354e-016 0 3.18055e-015 8.94531e-016 -1.98785e-016 6.36111e-015 1.49089e-016 -3.97569e-016 -0 6.4605e-016 0 3.18055e-015 5.96354e-016 0 3.18055e-015 8.94531e-016 -1.98785e-016 6.36111e-015 6.4605e-016 0 3.18055e-015 5.96354e-016 0 3.18055e-015 8.94531e-016 -1.98785e-016 6.36111e-015 0 0 -0 -1.4496 0.0636048 -5.0245 -1.74811 1.20616 -16.8394 -1.19271e-015 1.98785e-016 -3.18055e-015 -3.97569e-016 1.98785e-016 -3.18055e-015 -2.98177e-016 1.98785e-016 -3.18055e-015 -2.98177e-016 3.97569e-016 -0 4.96962e-016 0 -6.36111e-015 -9.93923e-017 3.97569e-016 -0 -8.94531e-016 5.96354e-016 -0 -3.97569e-016 3.97569e-016 -0 -9.93923e-017 3.97569e-016 -0 -8.94531e-016 5.96354e-016 -0 -3.97569e-016 3.97569e-016 -0 4.96962e-016 0 -6.36111e-015 -9.93923e-017 3.97569e-016 -0 -8.94531e-016 5.96354e-016 -0 -3.97569e-016 3.97569e-016 -0 -9.93923e-017 3.97569e-016 -0 -8.94531e-016 5.96354e-016 -0 -3.97569e-016 3.97569e-016 -0 -4.66111 -0.998717 0.12318 0.00986924 1.54847 0.176523 4.65186 -0.572283 -0.254274 4.66111 -0.998765 -0.123176 -0.00986867 1.54869 -0.176537 -4.65186 -0.572453 0.25427 
-44.5628 8.68374 -20.9816 19.3532 -29.3666 18.0641 0.246037 8.08798 0.338654 0.450071 16.1772 0.651703 0.450062 16.1772 0.651708 -14.0029 3.49862e-005 -8.00315 -16.0023 -1.68866e-006 -7.00198 4.21092 0.77802 -1.16073 -60.3266 24.7998 -28.6052 -12.884 1.25051 -61.527 17.4024 -4.5847 6.49421 -5.48639e-006 3.4333e-006 4.04428e-006 -1.5079e-006 2.4706e-006 1.56475e-006 -5.48639e-006 3.4333e-006 4.04428e-006 -2.08724e-015 0 -6.36111e-015 -5.48639e-006 3.4333e-006 4.04428e-006 -1.5079e-006 2.4706e-006 1.56475e-006 -5.48639e-006 3.4333e-006 4.04428e-006 -5.48639e-006 3.4333e-006 4.04428e-006 -1.5079e-006 2.4706e-006 1.56475e-006 -5.48639e-006 3.4333e-006 4.04428e-006 -2.08724e-015 0 -6.36111e-015 -5.48639e-006 3.4333e-006 4.04428e-006 -1.5079e-006 2.4706e-006 1.56475e-006 -5.48639e-006 3.4333e-006 4.04428e-006 -5.48639e-006 3.4333e-006 4.04428e-006 -1.5079e-006 2.4706e-006 1.56475e-006 -5.48639e-006 3.4333e-006 4.04428e-006 -7.42535 -0.877027 10.0476 20.2116 25.2963 18.9444 1.36867 -37.4071 -17.9122 23.0415 4.8737 23.2331 3.09996e-007 6.70967e-007 -4.27172e-007 9.29988e-007 2.0129e-006 -1.28152e-006 3.09996e-007 6.70967e-007 -4.27172e-007 1.59028e-015 6.36111e-015 3.18055e-015 3.09996e-007 6.70967e-007 -4.27172e-007 9.29988e-007 2.0129e-006 -1.28152e-006 3.09996e-007 6.70967e-007 -4.27172e-007 3.09996e-007 6.70967e-007 -4.27172e-007 9.29988e-007 2.0129e-006 -1.28152e-006 3.09996e-007 6.70967e-007 -4.27172e-007 1.59028e-015 6.36111e-015 3.18055e-015 3.09996e-007 6.70967e-007 -4.27172e-007 9.29988e-007 2.0129e-006 -1.28152e-006 3.09996e-007 6.70967e-007 -4.27172e-007 3.09996e-007 6.70967e-007 -4.27172e-007 9.29988e-007 2.0129e-006 -1.28152e-006 3.09996e-007 6.70967e-007 -4.27172e-007 54.6021 -57.2197 105.314 -152.249 54.3165 166.819 -29.6512 -0.746536 -45.1249 100.933 -82.0741 97.3131 13.6098 74.5316 -18.5923 -7.41726 42.639 30.7176 
-44.5628 8.68374 -20.9816 19.3532 -29.3666 18.0641 0.246037 8.08798 0.338654 0.450071 16.1772 0.651703 0.450062 16.1772 0.651708 -14.0029 3.49862e-005 -8.00315 -16.0023 -1.68866e-006 -7.00198 4.21092 0.77802 -1.16073 -60.2199 24.8113 -28.4344 -12.884 1.25052 -61.527 17.4024 -4.58471 6.49422 5.48501e-006 -3.44482e-006 -4.03684e-006 -4.37314e-006 -1.22421e-006 -2.89215e-006 3.36301e-007 9.67084e-007 -2.59287e-006 1.39149e-015 -3.27995e-015 -0 5.48501e-006 -3.44482e-006 -4.03684e-006 -4.37314e-006 -1.22421e-006 -2.89215e-006 3.36301e-007 9.67084e-007 -2.59287e-006 5.48501e-006 -3.44482e-006 -4.03684e-006 -4.37314e-006 -1.22421e-006 -2.89215e-006 3.36301e-007 9.67084e-007 -2.59287e-006 1.39149e-015 -3.27995e-015 -0 5.48501e-006 -3.44482e-006 -4.03684e-006 -4.37314e-006 -1.22421e-006 -2.89215e-006 3.36301e-007 9.67084e-007 -2.59287e-006 5.48501e-006 -3.44482e-006 -4.03684e-006 -4.37314e-006 -1.22421e-006 -2.89215e-006 3.36301e-007 9.67084e-007 -2.59287e-006 -7.42535 -0.877027 10.0476 20.2116 25.2963 18.9444 1.36867 -37.4071 -17.9122 22.8706 4.80697 23.2292 3.0993e-007 6.71697e-007 -4.26084e-007 3.0993e-007 6.71697e-007 -4.26084e-007 3.0993e-007 6.71697e-007 -4.26084e-007 0 0 -0 3.0993e-007 6.71697e-007 -4.26084e-007 3.0993e-007 6.71697e-007 -4.26084e-007 3.0993e-007 6.71697e-007 -4.26084e-007 3.0993e-007 6.71697e-007 -4.26084e-007 3.0993e-007 6.71697e-007 -4.26084e-007 3.0993e-007 6.71697e-007 -4.26084e-007 0 0 -0 3.0993e-007 6.71697e-007 -4.26084e-007 3.0993e-007 6.71697e-007 -4.26084e-007 3.0993e-007 6.71697e-007 -4.26084e-007 3.0993e-007 6.71697e-007 -4.26084e-007 3.0993e-007 6.71697e-007 -4.26084e-007 3.0993e-007 6.71697e-007 -4.26084e-007 54.6021 -57.2197 105.314 -152.249 54.3165 166.819 -29.6512 -0.746536 -45.1249 100.933 -82.0741 97.3131 13.6098 74.5316 -18.5923 -7.41726 42.639 30.7176 
-44.5628 8.68374 -20.9816 19.3532 -29.3666 18.0641 0.246037 8.08798 0.338654 0.450071 16.1772 0.651703 0.450062 16.1772 0.651708 -14.0029 3.49862e-005 -8.00315 -16.0023 -1.68866e-006 -7.00198 4.21092 0.77802 -1.16073 -60.1131 24.823 -28.2635 -12.884 1.25051 -61.527 17.4024 -4.5847 6.49422 3.98143e-006 -9.77074e-007 -2.46752e-006 5.48362e-006 -3.45633e-006 -4.02938e-006 3.98143e-006 -9.77074e-007 -2.46752e-006 2.78299e-015 5.76476e-015 3.18055e-015 3.98143e-006 -9.77074e-007 -2.46752e-006 5.48362e-006 -3.45633e-006 -4.02938e-006 3.98143e-006 -9.77074e-007 -2.46752e-006 3.98143e-006 -9.77074e-007 -2.46752e-006 5.48362e-006 -3.45633e-006 -4.02938e-006 3.98143e-006 -9.77074e-007 -2.46752e-006 2.78299e-015 5.76476e-015 3.18055e-015 3.98143e-006 -9.77074e-007 -2.46752e-006 5.48362e-006 -3.45633e-006 -4.02938e-006 3.98143e-006 -9.77074e-007 -2.46752e-006 3.98143e-006 -9.77074e-007 -2.46752e-006 5.48362e-006 -3.45633e-006 -4.02938e-006 3.98143e-006 -9.77074e-007 -2.46752e-006 -7.42535 -0.877027 10.0476 20.2116 25.2963 18.9444 1.36868 -37.4071 -17.9122 22.6996 4.74022 23.2252 4.77083e-015 -3.18055e-015 -6.36111e-015 -3.09864e-007 -6.72425e-007 4.24993e-007 3.18055e-015 3.18055e-015 -0 3.18055e-015 -3.18055e-015 -6.36111e-015 7.95139e-015 -3.18055e-015 3.18055e-015 -3.09864e-007 -6.72425e-007 4.24993e-007 -1.76556e-031 3.18055e-015 3.18055e-015 7.95139e-015 -3.18055e-015 3.18055e-015 -3.09864e-007 -6.72425e-007 4.24993e-007 -1.76556e-031 3.18055e-015 3.18055e-015 3.18055e-015 -3.18055e-015 -6.36111e-015 7.95139e-015 -3.18055e-015 3.18055e-015 -3.09864e-007 -6.72425e-007 4.24993e-007 -1.76556e-031 3.18055e-015 3.18055e-015 7.95139e-015 -3.18055e-015 3.18055e-015 -3.09864e-007 -6.72425e-007 4.24993e-007 -1.76556e-031 3.18055e-015 3.18055e-015 54.6021 -57.2197 105.314 -152.249 54.3165 166.819 -29.6512 -0.746536 -45.1249 100.933 -82.0741 97.3131 13.6098 74.5316 -18.5923 -7.41726 42.639 30.7176 
